<svg width="12" height="18" viewBox="0 0 12 18" fill="none" xmlns="http://www.w3.org/2000/svg">
<path d="M6.525 6.65C7.89167 6.85 9 7.43333 9.85 8.4C10.7 9.35 11.125 10.5083 11.125 11.875C11.125 13.4417 10.5917 14.7417 9.525 15.775C8.45833 16.7917 7.13333 17.3 5.55 17.3C4.01667 17.3 2.74167 16.8167 1.725 15.85C0.708333 14.8833 0.158333 13.65 0.075 12.15H2.1C2.16667 13.1 2.51667 13.8667 3.15 14.45C3.78333 15.0333 4.58333 15.325 5.55 15.325C6.21667 15.325 6.81667 15.175 7.35 14.875C7.88333 14.575 8.3 14.1583 8.6 13.625C8.9 13.075 9.05 12.4667 9.05 11.8C9.05 10.7833 8.69167 9.95 7.975 9.3C7.275 8.63333 6.38333 8.3 5.3 8.3H3.425V7.9L7.275 2.275H0.625V0.374999H10.475V0.849999L6.525 6.65Z" fill="#B3B9B8"/>
</svg>
