<svg width="126" height="126" viewBox="0 0 126 126" fill="none" xmlns="http://www.w3.org/2000/svg">
<g clip-path="url(#clip0_78_588)">
<path d="M63 63C69.2301 63 75.3203 61.1526 80.5005 57.6913C85.6806 54.23 89.718 49.3104 92.1022 43.5545C94.4864 37.7987 95.1102 31.4651 93.8947 25.3547C92.6793 19.2443 89.6792 13.6315 85.2739 9.22615C80.8685 4.8208 75.2557 1.82071 69.1453 0.605278C63.0349 -0.610156 56.7013 0.0136485 50.9455 2.39781C45.1896 4.78197 40.27 8.8194 36.8087 13.9995C33.3474 19.1797 31.5 25.2699 31.5 31.5C31.5083 39.8518 34.8298 47.8591 40.7353 53.7647C46.6409 59.6702 54.6482 62.9917 63 63ZM63 10.5C67.1534 10.5 71.2135 11.7316 74.667 14.0391C78.1204 16.3467 80.812 19.6264 82.4015 23.4637C83.9909 27.3009 84.4068 31.5233 83.5965 35.5969C82.7862 39.6705 80.7861 43.4123 77.8492 46.3492C74.9123 49.2861 71.1705 51.2862 67.0969 52.0965C63.0233 52.9068 58.8009 52.4909 54.9636 50.9015C51.1264 49.312 47.8466 46.6204 45.5391 43.167C43.2316 39.7135 42 35.6534 42 31.5C42 25.9305 44.2125 20.589 48.1508 16.6508C52.089 12.7125 57.4305 10.5 63 10.5Z" fill="white"/>
<path d="M63 73.4998C50.4728 73.5137 38.4626 78.4962 29.6045 87.3543C20.7465 96.2124 15.7639 108.223 15.75 120.75C15.75 122.142 16.3031 123.478 17.2877 124.462C18.2723 125.447 19.6076 126 21 126C22.3924 126 23.7277 125.447 24.7123 124.462C25.6969 123.478 26.25 122.142 26.25 120.75C26.25 111.003 30.1219 101.656 37.0138 94.7636C43.9058 87.8716 53.2533 83.9998 63 83.9998C72.7467 83.9998 82.0942 87.8716 88.9862 94.7636C95.8781 101.656 99.75 111.003 99.75 120.75C99.75 122.142 100.303 123.478 101.288 124.462C102.272 125.447 103.608 126 105 126C106.392 126 107.728 125.447 108.712 124.462C109.697 123.478 110.25 122.142 110.25 120.75C110.236 108.223 105.254 96.2124 96.3954 87.3543C87.5373 78.4962 75.5272 73.5137 63 73.4998Z" fill="white"/>
</g>
<defs>
<clipPath id="clip0_78_588">
<rect width="126" height="126" fill="white"/>
</clipPath>
</defs>
</svg>
