<svg width="13" height="17" viewBox="0 0 13 17" fill="none" xmlns="http://www.w3.org/2000/svg">
<path d="M4.975 15.025H12.075V17H0.9V16.325C3.48333 13.625 5.35833 11.5917 6.525 10.225C7.69167 8.84167 8.45833 7.79167 8.825 7.075C9.19167 6.35833 9.375 5.625 9.375 4.875C9.375 4.45833 9.3 4.075 9.15 3.725C9.01667 3.375 8.81667 3.075 8.55 2.825C8.3 2.575 7.99167 2.38333 7.625 2.25C7.25833 2.11667 6.85833 2.05 6.425 2.05C5.80833 2.05 5.26667 2.175 4.8 2.425C4.33333 2.65833 3.975 2.99167 3.725 3.425C3.475 3.85833 3.35 4.35 3.35 4.9V5.3H1.3V4.9C1.3 3.95 1.50833 3.10833 1.925 2.375C2.35833 1.64167 2.95833 1.075 3.725 0.674999C4.50833 0.274999 5.40833 0.0749989 6.425 0.0749989C7.90833 0.0749989 9.11667 0.524999 10.05 1.425C10.9833 2.30833 11.45 3.45833 11.45 4.875C11.45 5.69167 11.3 6.46667 11 7.2C10.7 7.93333 10.0833 8.91667 9.15 10.15C8.23333 11.3667 6.84167 12.9917 4.975 15.025Z" fill="#B3B9B8"/>
</svg>
